<svg width="26" height="14" xmlns="http://www.w3.org/2000/svg" xmlns:xlink="http://www.w3.org/1999/xlink" xmlns:svgjs="http://svgjs.com/svgjs" viewBox="0 0.211 26 13.578" fill="#6e774a"><svg xmlns="http://www.w3.org/2000/svg" width="26" height="14" viewBox="2 1.968 24.994 13.053"><path paint-order="stroke fill markers" fill-rule="evenodd" d="M26.828 8.079l-5.68-5.904a.553.553 0 0 0-.8-.064.606.606 0 0 0 0 .896l4.708 4.9H2.568a.58.58 0 0 0-.568.59c0 .327.254.59.568.59h22.488l-4.709 4.895a.606.606 0 0 0-.062.832.553.553 0 0 0 .863 0l5.68-5.903a.607.607 0 0 0 0-.832z"/></svg></svg>