<svg width="41" height="21" xmlns="http://www.w3.org/2000/svg" xmlns:xlink="http://www.w3.org/1999/xlink" xmlns:svgjs="http://svgjs.com/svgjs" viewBox="0 0.254 41 20.492" ><svg xmlns="http://www.w3.org/2000/svg" width="41" height="21" viewBox="2.01 2.014 39.99 19.988"><path paint-order="stroke fill markers" fill-rule="evenodd" d="M2.274 11.37l9.089-9.04a.912.912 0 0 1 1.281-.099.9.9 0 0 1 0 1.373L5.11 11.108h35.981c.502 0 .91.405.91.904 0 .5-.408.904-.91.904H5.11l7.534 7.494a.9.9 0 0 1 .1 1.275.912.912 0 0 1-1.381 0l-9.089-9.04a.9.9 0 0 1 0-1.275z"/></svg></svg>